<svg xmlns="http://www.w3.org/2000/svg" viewBox="0 0 64 64">
  <defs>
    <radialGradient id="b" cx="35%" cy="28%" r="65%">
      <stop offset="0%"   stop-color="#FDE68A"/>
      <stop offset="55%"  stop-color="#F59E0B"/>
      <stop offset="100%" stop-color="#92400E"/>
    </radialGradient>
    <radialGradient id="h" cx="38%" cy="28%" r="60%">
      <stop offset="0%"   stop-color="#FDE68A"/>
      <stop offset="100%" stop-color="#D97706"/>
    </radialGradient>
    <radialGradient id="s" cx="35%" cy="30%" r="70%">
      <stop offset="0%"   stop-color="#374151"/>
      <stop offset="100%" stop-color="#030712"/>
    </radialGradient>
    <filter id="sh">
      <feDropShadow dx="0" dy="2" stdDeviation="2" flood-color="#451a03" flood-opacity="0.4"/>
    </filter>
  </defs>
  <!-- Wings -->
  <ellipse cx="14" cy="19" rx="13.5" ry="6" fill="rgba(224,242,254,0.88)" stroke="rgba(125,211,252,0.65)" stroke-width="0.5" transform="rotate(-32 14 19)"/>
  <ellipse cx="16" cy="31" rx="8.5"  ry="3.8" fill="rgba(224,242,254,0.72)" stroke="rgba(125,211,252,0.5)" stroke-width="0.5" transform="rotate(-16 16 31)"/>
  <ellipse cx="50" cy="19" rx="13.5" ry="6" fill="rgba(224,242,254,0.88)" stroke="rgba(125,211,252,0.65)" stroke-width="0.5" transform="rotate(32 50 19)"/>
  <ellipse cx="48" cy="31" rx="8.5"  ry="3.8" fill="rgba(224,242,254,0.72)" stroke="rgba(125,211,252,0.5)" stroke-width="0.5" transform="rotate(16 48 31)"/>
  <!-- Body -->
  <ellipse cx="32" cy="38" rx="10.5" ry="15.5" fill="url(#b)" filter="url(#sh)"/>
  <ellipse cx="32" cy="31.5" rx="10.5" ry="4.2" fill="url(#s)"/>
  <ellipse cx="32" cy="40"   rx="10.5" ry="4.2" fill="url(#s)"/>
  <ellipse cx="28" cy="29.5" rx="2"    ry="5.5" fill="rgba(255,255,255,0.24)" transform="rotate(-8 28 29.5)"/>
  <ellipse cx="32" cy="53.5" rx="2.6"  ry="4.5" fill="#92400E"/>
  <!-- Head -->
  <circle cx="32" cy="18" r="9.5" fill="url(#h)" filter="url(#sh)"/>
  <ellipse cx="29" cy="17.5" rx="2.5" ry="2.7" fill="#0f172a"/>
  <circle cx="28.2" cy="16.5" r="0.9" fill="white"/>
  <ellipse cx="37.5" cy="17.5" rx="2.5" ry="2.7" fill="#0f172a"/>
  <circle cx="36.7" cy="16.5" r="0.9" fill="white"/>
  <path d="M28.5 21.5 Q32 25 35.5 21.5" stroke="#92400E" stroke-width="1.3" fill="none" stroke-linecap="round"/>
  <!-- Antennae -->
  <path d="M28 10 Q23 4 19 2" stroke="#1C1917" stroke-width="1.6" fill="none" stroke-linecap="round"/>
  <circle cx="19" cy="2" r="2.4" fill="#1C1917"/>
  <circle cx="19" cy="2" r="1.1" fill="#FCD34D"/>
  <path d="M36 10 Q41 4 45 2" stroke="#1C1917" stroke-width="1.6" fill="none" stroke-linecap="round"/>
  <circle cx="45" cy="2" r="2.4" fill="#1C1917"/>
  <circle cx="45" cy="2" r="1.1" fill="#FCD34D"/>
</svg>
